<svg width="34" height="34" viewBox="0 0 34 34" fill="none" xmlns="http://www.w3.org/2000/svg">
<rect width="34" height="34" rx="17" fill="black"/>
<path d="M17 25.9584C12.06 25.9584 8.04166 21.94 8.04166 17C8.04166 12.06 12.06 8.04169 17 8.04169C21.94 8.04169 25.9583 12.06 25.9583 17C25.9583 21.94 21.94 25.9584 17 25.9584ZM17 9.29169C12.75 9.29169 9.29166 12.75 9.29166 17C9.29166 21.25 12.75 24.7084 17 24.7084C21.25 24.7084 24.7083 21.25 24.7083 17C24.7083 12.75 21.25 9.29169 17 9.29169Z" fill="#1D9BF0"/>
<path d="M17 21.2625C15.4233 21.2625 13.9725 20.4709 13.12 19.1425C12.9333 18.8525 13.0175 18.4675 13.3083 18.28C13.5983 18.0917 13.985 18.1767 14.1717 18.4684C14.7942 19.4367 15.8517 20.0142 17.0008 20.0142C18.15 20.0142 19.2075 19.4367 19.8308 18.4692C20.0175 18.1775 20.4042 18.0942 20.6942 18.2817C20.9858 18.4684 21.0692 18.855 20.8825 19.145C20.0283 20.4734 18.5775 21.2659 17.0008 21.2659L17 21.2625Z" fill="#1D9BF0"/>
<path d="M19.2817 16.1134C19.9619 16.1134 20.5133 15.5619 20.5133 14.8817C20.5133 14.2015 19.9619 13.65 19.2817 13.65C18.6014 13.65 18.05 14.2015 18.05 14.8817C18.05 15.5619 18.6014 16.1134 19.2817 16.1134Z" fill="#1D9BF0"/>
<path d="M14.7183 16.1134C15.3986 16.1134 15.95 15.5619 15.95 14.8817C15.95 14.2015 15.3986 13.65 14.7183 13.65C14.0381 13.65 13.4867 14.2015 13.4867 14.8817C13.4867 15.5619 14.0381 16.1134 14.7183 16.1134Z" fill="#1D9BF0"/>
</svg>
