<svg width="34" height="34" viewBox="0 0 34 34" fill="none" xmlns="http://www.w3.org/2000/svg">
<rect width="34" height="34" rx="17" fill="black"/>
<g clip-path="url(#clip0_105_318)">
<path d="M-24.5833 22C-24.6667 21.9167 -24.6667 21.9167 -24.6667 21.8334C-24.5833 21.8334 -24.5833 21.9167 -24.5833 22ZM22 8.83335H20.9167V8.58335C20.9167 8.25002 20.6667 7.91669 20.25 7.91669C19.9167 7.91669 19.5833 8.16669 19.5833 8.58335V8.83335H13.4167V8.58335C13.4167 8.25002 13.1667 7.91669 12.75 7.91669C12.4167 7.91669 12.0833 8.16669 12.0833 8.58335V8.83335H11C9.83333 8.83335 8.91666 9.75002 8.91666 10.9167V21.8334C8.91666 23 9.83333 23.9167 11 23.9167H13.4167C13.75 23.9167 14.0833 23.6667 14.0833 23.25C14.0833 22.9167 13.8333 22.5834 13.4167 22.5834H11C10.5 22.5834 10.1667 22.1667 10.1667 21.75V13.5834C10.1667 13.3334 10.5 13 11 13H22C22.5 13 22.8333 13.3334 22.8333 13.5834V15.0834C22.8333 15.4167 23.0833 15.75 23.5 15.75C23.8333 15.75 24.1667 15.5 24.1667 15.0834V10.9167C24.0833 9.75002 23.1667 8.83335 22 8.83335ZM22.8333 11.9167C22.5833 11.8334 22.25 11.75 22 11.75H11C10.6667 11.75 10.4167 11.8334 10.1667 11.9167V10.9167C10.1667 10.4167 10.5833 10.0834 11 10.0834H12.0833V10.5C12.0833 10.8334 12.3333 11.1667 12.75 11.1667C13.0833 11.1667 13.4167 10.9167 13.4167 10.5V10.0834H19.6667V10.5C19.6667 10.8334 19.9167 11.1667 20.3333 11.1667C20.6667 11.1667 21 10.9167 21 10.5V10.0834H22C22.5 10.0834 22.8333 10.5 22.8333 10.9167V11.9167Z" fill="#1D9BF0"/>
<path d="M19.9167 15.6667C17.0833 15.6667 14.75 18 14.75 20.8334C14.75 23.6667 17.0833 26 19.9167 26C22.75 26 25.0833 23.6667 25.0833 20.8334C25.0833 18 22.75 15.6667 19.9167 15.6667ZM19.9167 24.8334C17.75 24.8334 16 23.0834 16 20.9167C16 18.75 17.75 17 19.9167 17C22.0833 17 23.8333 18.75 23.8333 20.9167C23.8333 23 22.0833 24.8334 19.9167 24.8334Z" fill="#1D9BF0"/>
<path d="M22.75 22.5833C22.6667 22.75 22.4167 22.9167 22.25 22.9167C22.1667 22.9167 22 22.9167 21.9167 22.8333L19.3333 21.1667V18.6667C19.3333 18.3333 19.5833 18 20 18C20.3333 18 20.6667 18.25 20.6667 18.6667V20.5L22.6667 21.75C22.8333 21.9167 22.9167 22.25 22.75 22.5833Z" fill="#1D9BF0"/>
</g>
<defs>
<clipPath id="clip0_105_318">
<rect width="20" height="20" fill="white" transform="translate(7 7)"/>
</clipPath>
</defs>
</svg>
