<svg width="34" height="34" viewBox="0 0 34 34" fill="none" xmlns="http://www.w3.org/2000/svg">
<rect width="34" height="34" rx="17" fill="black"/>
<path d="M22.8333 15.75V14.3334H19.1667V19.6667H20.5833V18H22.25V16.5834H20.5833V15.75H22.8333ZM16.75 14.3334H18.1667V19.6667H16.75V14.3334ZM13.75 15.6667C14.0833 15.6667 14.5 15.8334 14.75 16.0834L15.75 15.25C15.25 14.6667 14.5 14.3334 13.75 14.3334C12.25 14.3334 11.0833 15.5 11.0833 17C11.0833 18.5 12.25 19.6667 13.75 19.6667C14.5833 19.6667 15.25 19.3334 15.75 18.75V16.6667H13.4167V17.6667H14.4167V18.1667C14.25 18.25 14 18.3334 13.75 18.3334C13 18.3334 12.4167 17.75 12.4167 17C12.4167 16.3334 13 15.6667 13.75 15.6667Z" fill="#1D9BF0"/>
<path d="M24.0833 8.68335H9.91667C8.88334 8.68335 8.04167 9.52252 8.04167 10.5558V23.4783C8.04167 24.51 8.88334 25.35 9.91667 25.35H24.0833C25.1167 25.35 25.9583 24.51 25.9583 23.4783V10.5558C25.9583 9.52252 25.1167 8.68335 24.0833 8.68335ZM24.7083 23.4783C24.7083 23.82 24.4283 24.1 24.0833 24.1H9.91667C9.57167 24.1 9.29167 23.82 9.29167 23.4783V10.5558C9.29167 10.2125 9.57167 9.93335 9.91667 9.93335H24.0833C24.4283 9.93335 24.7083 10.2125 24.7083 10.5558V23.4783Z" fill="#1D9BF0"/>
</svg>
